<?xml version="1.0" encoding="utf-8"?>

<!DOCTYPE svg PUBLIC "-//W3C//DTD SVG 1.1//EN" "http://www.w3.org/Graphics/SVG/1.1/DTD/svg11.dtd">
<svg version="1.1" id="Layer_1" xmlns="http://www.w3.org/2000/svg" xmlns:xlink="http://www.w3.org/1999/xlink" x="0px" y="0px"
	 viewBox="-1092.3218 -403 2846.1875 1050.0858" enable-background="new -1092.3218 -403 2846.1875 1050.0858" xml:space="preserve"
	>
<g id="Layer_x0020_1">
	
		<linearGradient id="SVGID_1_" gradientUnits="userSpaceOnUse" x1="45409.082" y1="-10987.1572" x2="45557.8047" y2="-54254.3477" gradientTransform="matrix(0.0276 0 0 -0.0276 -921.8766 -651.5629)">
		<stop  offset="0" style="stop-color:#000000"/>
		<stop  offset="0.4706" style="stop-color:#141313"/>
		<stop  offset="1" style="stop-color:#9E9898"/>
	</linearGradient>
	<path fill="url(#SVGID_1_)" d="M-484.4354-370.9721c-126.1113,13.9998-245.6743,50.4671-332.4957,118.6598
		c-82.8699,65.1443-118.434,143.724-138.8692,242.0614h-47.8704c-11.4031,0-20.7739,9.3708-20.7739,20.7739v62.5476
		c0,11.4031,9.3708,20.7739,20.7739,20.7739h35.1124c-1.2419,34.2092,0.3387,68.1927,4.9677,101.3858
		c12.9837,94.6117,49.7897,183.2396,110.8695,253.3516c76.2087,87.4989,161.7883,137.4015,249.513,159.4173
		c266.4482,66.6121,495.0743-120.3533,653.4755-314.4315c64.354-78.8055,118.2082-165.6269,145.0788-249.9646
		c19.1933-60.0638,24.9513-118.8856,11.9676-173.4171c7.4515-3.9516,15.6933-7.5644,24.7255-10.6128
		c22.6933-7.7902,49.7897-12.1934,78.2409-12.1934c29.1287,0,56.5638,4.5161,79.4828,12.5321
		c19.0804,6.6612,34.6609,15.5805,44.9349,25.8545c-8.4676,50.1284-2.1451,103.418,15.1288,157.8367
		c26.9836,84.3376,80.8377,171.1591,145.1917,249.9646c159.756,195.7717,384.0919,381.7209,653.4755,314.4315
		c87.7247-22.0158,173.1914-71.9184,249.4001-159.4173c61.1927-70.112,97.8859-158.7399,110.9824-253.3516
		c4.5161-33.1931,6.2096-67.1766,4.9677-101.3858h51.3704c11.4031,0,20.7739-9.3708,20.7739-20.7739V10.523
		c0-11.4031-9.3708-20.7739-20.7739-20.7739h-64.1283c-20.7739-99.5794-57.5798-180.8687-141.8046-246.013
		c-86.5957-67.0637-204.9167-101.9503-329.5603-114.7082c-143.6111-16.0321-296.8188-3.0484-417.1722,24.4997H-67.3762
		C-187.7295-374.0205-340.9372-387.0042-484.4354-370.9721z M447.456-160.6361c-12.4192-8.4676-26.9835-15.5805-43.1285-21.2255
		c-27.6609-9.7096-60.1766-15.1288-94.0472-15.1288c-33.1931,0-65.2572,5.3064-92.4666,14.5643
		c-8.6934,3.0484-17.0482,6.4354-24.7255,10.2741c-5.8709-13.2095-13.0966-26.0803-21.6771-38.4995
		c-21.5642-31.3867-51.5961-59.725-91.4504-83.7731h485.3648c-39.9673,24.0481-69.9991,52.3864-91.5634,83.7731
		C462.8106-194.6195,454.0043-177.9101,447.456-160.6361z"/>
	
		<linearGradient id="SVGID_2_" gradientUnits="userSpaceOnUse" x1="44917.4805" y1="-11359.4131" x2="45421.4258" y2="-45491.2344" gradientTransform="matrix(0.0276 0 0 -0.0276 -921.8766 -651.5629)">
		<stop  offset="0" style="stop-color:#750B0C"/>
		<stop  offset="1" style="stop-color:#CD3032"/>
	</linearGradient>
	<path fill="url(#SVGID_2_)" d="M-847.3017-67.8308c-30.0319,81.628-39.8543,169.3527-28.5641,251.3194
		c10.8386,77.7893,40.5317,150.2723,89.7569,206.8361c63.3379,72.5959,133.2241,113.805,204.3522,131.6435
		c82.3054,20.5481,167.4334,10.0482,246.6904-19.3062c79.4828-31.1609,212.5941-137.4015,316.6895-264.8676
		C39.6547,166.5533,87.8638,89.5543,111.1216,16.8455c20.9997-66.0475,20.9997-128.2564-12.8708-177.5945
		c-17.8385-25.9674-45.4994-49.451-84.7892-69.3217l-8.9192-3.3871c-115.0469-42.3382-304.3832-68.983-479.381-49.451
		C-641.9333-264.167-794.0121-203.4259-845.2695-73.363L-847.3017-67.8308z M534.1646,16.8455
		c23.2578,72.7087,71.3539,149.7078,129.4984,220.9488C767.7584,365.2604,900.7567,471.501,980.2396,502.6619
		c79.257,29.3544,164.4979,39.8543,246.6904,19.3062c71.1282-17.8385,141.1272-59.0476,204.3523-131.6435
		c49.338-56.5638,79.0313-129.0468,89.7568-206.8361c11.2903-81.9667,1.5807-169.6914-28.4512-251.3194l-2.0322-5.5322
		c-51.2574-130.0629-203.3362-190.804-370.5437-209.5457c-174.9978-19.532-364.2212,7.1128-479.2681,49.451l-8.9193,3.3871
		c-39.4028,19.8707-67.0637,43.3543-84.7892,69.3217C513.1649-111.4109,513.1649-49.202,534.1646,16.8455z"/>
	
		<linearGradient id="SVGID_3_" gradientUnits="userSpaceOnUse" x1="45024.7852" y1="-22586.0586" x2="45402.5391" y2="-47649.0391" gradientTransform="matrix(0.0276 0 0 -0.0276 -921.8766 -651.5629)">
		<stop  offset="0" style="stop-color:#A11D1F"/>
		<stop  offset="0.4784" style="stop-color:#C43E40"/>
		<stop  offset="1" style="stop-color:#E86062"/>
	</linearGradient>
	<path fill="url(#SVGID_3_)" d="M724.1783,132.0054c-44.3704,0-87.9505,2.8225-130.7403,8.2418
		c20.5482,33.0802,44.3704,65.8217,70.2249,97.5471C767.7584,365.2604,900.7567,471.501,980.2396,502.6619
		c79.257,29.3544,164.4979,39.8543,246.6904,19.3062c66.725-16.7095,132.208-53.9671,192.2717-118.2082
		C1237.0911,235.1976,992.7717,132.0054,724.1783,132.0054z M-66.9245,132.0054c40.4188,0,80.3861,2.4838,119.563,6.9999
		c-20.7739,33.5318-44.9349,66.725-71.0152,98.7891C-122.4722,365.2604-255.5834,471.501-335.0663,502.6619
		c-79.257,29.3544-164.385,39.8543-246.6904,19.3062c-64.5798-16.145-128.1435-51.5961-186.6266-112.3373
		C-585.4825,237.5685-338.6791,132.0054-66.9245,132.0054z"/>
</g>
</svg>
